<svg xmlns="http://www.w3.org/2000/svg" width="13.318" height="13.318" viewBox="0 0 13.318 13.318"><defs><style>.a{fill:#949494;}</style></defs><path class="a" d="M14.659,8a6.659,6.659,0,1,0,6.659,6.659A6.658,6.658,0,0,0,14.659,8Zm0,12.029a5.37,5.37,0,1,1,5.37-5.37A5.369,5.369,0,0,1,14.659,20.029Zm1.659-2.8-2.28-1.657a.324.324,0,0,1-.132-.26V10.9a.323.323,0,0,1,.322-.322h.859a.323.323,0,0,1,.322.322v3.8l1.794,1.3a.322.322,0,0,1,.07.451l-.5.7a.324.324,0,0,1-.451.07Z" transform="translate(-8 -8)"/></svg>