<svg xmlns="http://www.w3.org/2000/svg" width="15.688" height="10.785" viewBox="0 0 15.688 10.785"><defs><style>.a{fill:#f2cd00;}</style></defs><g transform="translate(10.399 1.992)"><g transform="translate(0 0)"><path class="a" d="M339.392,148.381l5.289,3.343V144.9Z" transform="translate(-339.392 -144.9)"/></g></g><g transform="translate(0 1.992)"><g transform="translate(0 0)"><path class="a" d="M0,144.9v6.821l5.289-3.343Z" transform="translate(0 -144.9)"/></g></g><g transform="translate(0.029)"><g transform="translate(0)"><path class="a" d="M15.64,80H1.911a.969.969,0,0,0-.951.834l7.815,5.149,7.815-5.149A.969.969,0,0,0,15.64,80Z" transform="translate(-0.96 -80)"/></g></g><g transform="translate(0.031 6.065)"><path class="a" d="M10.494,277.921l-1.387.91a.492.492,0,0,1-.539,0l-1.388-.91-6.156,3.893a.967.967,0,0,0,.95.828H15.7a.967.967,0,0,0,.95-.828Z" transform="translate(-1.024 -277.92)"/></g></svg>