<svg width="241" height="50" viewBox="0 0 241 50" fill="none" xmlns="http://www.w3.org/2000/svg">
<path fill-rule="evenodd" clip-rule="evenodd" d="M120.5 20.3125C120.963 20.3125 121.272 20.625 121.272 21.0938C121.272 21.5625 120.963 21.875 120.5 21.875C119.573 21.875 118.801 22.1875 118.183 22.8125C117.565 23.4375 117.256 24.2188 117.256 25.1563C117.256 25.625 116.947 25.9375 116.483 25.9375C116.02 25.9375 115.711 25.625 115.711 25.1563C115.711 23.75 116.329 22.5 117.101 21.5625C117.874 20.7813 119.11 20.3125 120.5 20.3125ZM130.851 33.9063C132.859 31.4063 133.94 28.5938 133.94 25.3125C133.94 21.5625 132.704 18.4375 130.078 15.7813C127.452 13.125 124.362 11.875 120.809 11.875C116.947 11.875 113.857 13.125 111.076 15.7813C108.45 18.4375 107.06 21.5625 107.06 25.4688C107.06 29.0625 108.45 32.3438 111.076 35C113.702 37.6563 116.792 38.9063 120.5 38.9063C122.972 38.9063 125.135 38.2813 127.143 37.1875L127.915 38.125C128.533 37.6563 129.306 37.1875 129.924 36.7188C130.542 36.25 131.16 35.625 131.623 35L130.851 33.9063ZM132.55 36.0938L140.583 45.625C141.356 46.7188 141.356 48.125 140.274 49.0625C139.193 49.8438 137.802 49.8438 136.876 48.75L128.842 39.2188C129.46 38.75 130.233 38.2813 130.851 37.8125C131.468 37.1875 132.086 36.7188 132.55 36.0938ZM120.5 17.6563C119.573 17.6563 118.646 17.8125 117.719 18.2813C116.792 18.75 116.02 19.2188 115.402 20C114.011 21.4063 113.239 23.125 113.239 25.3125C113.239 27.3438 113.857 29.2188 115.402 30.625C116.792 32.0313 118.492 32.8125 120.5 32.8125C122.663 32.8125 124.362 32.0313 125.752 30.625C127.143 29.2188 127.915 27.3438 127.915 25.3125C127.915 23.2813 127.143 21.4063 125.752 20C124.362 18.4375 122.508 17.6563 120.5 17.6563ZM218.754 37.9688V0.9375H224.779V14.5313C225.397 13.5938 226.324 12.9688 227.56 12.5C228.795 12.0313 230.031 11.875 231.267 11.875C232.658 11.875 234.048 12.1875 235.284 12.8125C236.674 13.4375 237.756 14.2188 238.528 15.3125C239.609 16.4063 240.227 17.9688 240.691 19.5313C241 20.625 241 22.3438 241 24.375V38.125H234.975V25.625C234.975 23.2813 234.666 21.4063 234.202 20.3125C233.43 18.5938 232.04 17.8125 229.877 17.8125C228.023 17.8125 226.633 18.5938 225.706 20C225.242 20.625 225.088 21.25 224.933 22.1875C224.779 22.9688 224.779 23.9063 224.779 25V25.7813V38.125H218.754V37.9688ZM192.645 37.9688V12.5H198.207V14.8438C198.979 13.9063 199.906 13.125 201.142 12.5C202.378 12.0313 203.768 11.7188 205.004 11.7188C206.395 11.7188 207.631 12.0313 208.867 12.5C210.102 13.125 211.184 13.75 212.111 14.8438L212.729 15.625C213.656 16.875 214.119 18.2813 214.428 20C214.583 21.0938 214.737 22.6563 214.737 24.6875V37.8125H208.712V25.7813C208.712 24.375 208.712 23.2813 208.558 22.1875C208.403 21.25 208.094 20.3125 207.785 19.6875C207.322 19.0625 206.704 18.4375 206.086 18.125C205.313 17.8125 204.541 17.5 203.768 17.5C202.842 17.5 202.069 17.6563 201.297 18.125C200.524 18.4375 199.906 19.0625 199.597 19.6875C199.134 20.3125 198.979 21.25 198.67 22.3438C198.516 23.4375 198.361 24.375 198.361 25.4688V26.25V37.8125H192.645V37.9688ZM189.092 12.5V37.9688H183.531V34.375C182.604 35.625 181.368 36.7188 179.823 37.5C178.278 38.2813 176.579 38.5938 175.034 38.5938C173.18 38.5938 171.326 38.2813 169.781 37.5C168.236 36.7188 166.846 35.625 165.765 34.375C163.602 31.875 162.52 28.75 162.52 25.1563C162.52 23.2813 162.829 21.7188 163.293 20.3125C163.756 18.9063 164.683 17.5 165.765 16.0938C168.236 13.125 171.326 11.7188 175.034 11.7188C178.587 11.7188 181.368 13.125 183.531 16.0938V12.5H189.092ZM183.376 25.1563C183.376 23.125 182.758 21.25 181.368 19.8438C179.977 18.4375 178.278 17.6563 176.27 17.6563H175.961C173.798 17.6563 172.099 18.4375 170.708 19.8438C169.318 21.4063 168.545 23.125 168.545 25.3125C168.545 27.3438 169.318 29.0625 170.708 30.4688C172.099 31.875 173.952 32.6563 175.961 32.6563C178.124 32.6563 179.977 31.875 181.213 30.4688C182.758 29.2188 183.376 27.3438 183.376 25.1563ZM136.567 27.6563C136.567 30.7813 137.802 33.2813 140.12 35.4688C142.437 37.6563 145.218 38.75 148.308 38.75C151.552 38.75 154.178 37.6563 156.495 35.4688C158.813 33.2813 159.894 30.4688 159.894 27.3438C159.894 23.9063 158.658 21.0938 156.186 19.0625C155.259 18.2813 154.178 17.5 152.942 17.0313C152.633 16.875 151.397 16.4063 149.235 15.7813C147.844 15.3125 146.763 14.6875 146.145 14.2188C145.218 13.4375 144.754 12.5 144.754 11.25C144.754 10.1563 145.063 9.21875 145.681 8.4375C146.299 7.65625 147.226 7.34375 148.308 7.34375C149.389 7.34375 150.316 7.65625 151.088 8.4375C151.861 9.0625 152.324 10 152.324 11.0938H159.276C159.276 8.28125 158.195 5.78125 156.186 3.75C154.178 1.71875 151.706 0.78125 148.771 0.78125C145.836 0.78125 143.364 1.71875 141.201 3.75C139.193 5.78125 138.111 8.125 138.111 11.0938C138.111 13.9063 139.038 16.0938 140.892 18.125C141.665 19.0625 142.746 19.6875 143.827 20.1563C144.445 20.4688 145.527 20.9375 147.226 21.4063C149.235 22.0313 150.625 22.8125 151.397 23.4375C152.788 24.5313 153.406 25.9375 153.406 27.6563C153.406 28.9063 152.942 30 152.015 30.9375C151.088 31.7188 150.007 32.1875 148.771 32.1875C147.381 32.1875 146.145 31.7188 145.218 30.9375C144.291 30.1563 143.827 29.0625 143.827 27.6563H136.567ZM80.9512 27.6563H88.0576C88.0576 29.0625 88.521 30.1563 89.448 30.9375C90.3749 31.7188 91.6108 32.1875 93.0012 32.1875C94.2371 32.1875 95.3185 31.7188 96.2454 30.9375C97.1723 30.1563 97.6358 29.0625 97.6358 27.6563C97.6358 25.9375 97.0178 24.5313 95.6275 23.4375C94.855 22.8125 93.4646 22.1875 91.4563 21.4063C89.9114 20.9375 88.6755 20.4688 88.0576 20.1563C86.9762 19.6875 86.0492 18.9063 85.1223 18.125C83.2685 16.25 82.3416 13.9063 82.3416 11.0938C82.3416 8.125 83.423 5.78125 85.4313 3.75C87.4396 1.71875 89.9114 0.78125 93.0012 0.78125C95.7819 0.78125 98.2537 1.71875 100.417 3.75C102.425 5.78125 103.506 8.125 103.506 11.0938H96.5544C96.5544 10 96.0909 9.0625 95.3185 8.4375C94.546 7.8125 93.6191 7.34375 92.5377 7.34375C91.4563 7.34375 90.5294 7.65625 89.9114 8.4375C89.2935 9.21875 88.9845 10 88.9845 11.25C88.9845 12.5 89.448 13.4375 90.3749 14.2188C90.9928 14.6875 92.0742 15.1563 93.4646 15.7813C95.6275 16.5625 96.8634 17.0313 97.1723 17.0313C98.4082 17.5 99.4896 18.2813 100.417 19.0625C102.888 21.0938 104.124 23.9063 104.124 27.3438C104.124 30.625 103.043 33.2813 100.726 35.4688C98.4082 37.6563 95.6275 38.75 92.5377 38.75C89.448 38.75 86.6672 37.6563 84.3499 35.4688C82.0326 33.2813 80.9512 30.7813 80.9512 27.6563Z" fill="white"/>
<path fill-rule="evenodd" clip-rule="evenodd" d="M227.096 8.125V6.5625H228.023V8.125H227.096ZM230.032 8.125H230.959L233.894 1.09375H232.812L230.495 6.875L228.023 1.09375H226.942L230.032 8.125ZM234.821 8.125V1.09375H235.748V2.1875C236.366 1.40625 236.984 0.9375 237.91 0.9375C238.374 0.9375 238.837 1.09375 239.301 1.25C239.764 1.40625 240.073 1.71875 240.382 2.1875C240.691 2.5 240.846 2.8125 240.846 3.125C241 3.4375 241 3.90625 241 4.375V8.125H240.073V4.375C240.073 3.90625 240.073 3.59375 239.919 3.28125C239.919 3.125 239.764 2.8125 239.61 2.65625C239.146 2.03125 238.528 1.71875 237.756 1.71875C237.447 1.71875 237.138 1.71875 236.829 1.875C236.52 2.03125 236.211 2.1875 236.057 2.5C235.902 2.65625 235.748 2.96875 235.748 3.28125C235.748 3.59375 235.748 3.90625 235.748 4.21875V7.96875H234.821V8.125Z" fill="white"/>
<path fill-rule="evenodd" clip-rule="evenodd" d="M7.72436 37.9687L0 17.0312H2.93526L9.42372 34.375L14.2128 19.5312H16.5301L21.3192 34.375L27.9622 16.875H30.8974L23.0186 37.8125H19.7744L15.2942 23.9063L10.9686 37.8125L7.72436 37.9687ZM56.2333 37.9687V9.6875H59.0141V20.9375C59.6321 19.5312 60.7135 18.4375 62.2583 17.6563C63.6487 16.875 65.1936 16.5625 66.893 16.5625C69.9827 16.5625 72.609 17.6563 74.7718 19.6875C76.9346 21.7188 78.016 24.375 78.016 27.3438C78.016 28.75 77.7071 30 77.2436 31.25C76.7801 32.5 76.1622 33.4375 75.5442 34.2188C74.1539 35.7812 72.7635 36.875 71.3731 37.5C70.1372 38.125 68.7468 38.2812 67.0474 38.2812C65.3481 38.2812 63.8032 37.9687 62.4128 37.1875C60.868 36.4062 59.6321 35.4688 58.8596 34.0625V37.6563H56.2333V37.9687ZM66.7385 19.2188C65.6571 19.2188 64.5756 19.375 63.4942 19.8438C62.4128 20.3125 61.6404 20.9375 60.868 21.7188C60.0955 22.5 59.4776 23.4375 59.1686 24.375C58.8596 25.3125 58.7051 26.4063 58.7051 27.6563C58.7051 30 59.4776 31.875 61.1769 33.4375C62.7218 35 64.7301 35.7813 67.0474 35.7813C69.3648 35.7813 71.2186 35 72.7635 33.2812C74.3083 31.7188 75.0808 29.6875 75.0808 27.5C75.0808 25.1563 74.3083 23.2812 72.609 21.7188C71.0641 20 69.2103 19.2188 66.7385 19.2188ZM53.1436 28.4375H34.4506C34.4506 30.3125 35.2231 32.0312 36.9224 33.5938C38.4673 35 40.3212 35.7813 42.3295 35.7813C43.8744 35.7813 45.4192 35.3125 46.8096 34.5312C48.2 33.75 49.1269 32.6562 49.7449 31.25H52.5256C51.7532 33.4375 50.5173 35.1563 48.6635 36.5625C46.8096 37.9688 44.8013 38.5938 42.484 38.5938C39.3942 38.5938 36.9224 37.5 34.7596 35.3125C32.5968 33.125 31.5154 30.625 31.5154 27.5C31.5154 24.5313 32.5968 21.875 34.6051 19.8438C36.768 17.6562 39.2397 16.5625 42.3295 16.5625C43.8744 16.5625 45.4192 16.875 46.8096 17.6563C48.2 18.2813 49.4359 19.375 50.5173 20.625C51.4442 21.7188 52.0622 22.9688 52.3712 24.2188C52.9891 25.4688 53.1436 26.875 53.1436 28.4375ZM34.4506 25.9375H50.3628C50.0538 24.0625 49.1269 22.5 47.5821 21.25C46.0372 20 44.3378 19.375 42.484 19.375C40.4756 19.375 38.7763 20 37.2314 21.25C35.6865 22.3438 34.7596 24.0625 34.4506 25.9375Z" fill="white"/>
</svg>
