<svg xmlns="http://www.w3.org/2000/svg" width="255.096" height="19.764" viewBox="0 0 255.096 19.764"><defs><style>.a{fill:#fff;}</style></defs><path class="a" d="M24.03-18.9,12.258,0H5.994L1.782-18.9H8.316L10.665-7.884,17.5-18.9ZM36.018-9.963h5.535l-1.62,8.154A11.58,11.58,0,0,1,36.464-.149a14.7,14.7,0,0,1-4.2.581A11.536,11.536,0,0,1,27.176-.635a8.045,8.045,0,0,1-3.4-2.984,8.112,8.112,0,0,1-1.2-4.4,11.165,11.165,0,0,1,1.539-5.859,10.673,10.673,0,0,1,4.293-4.01,13.4,13.4,0,0,1,6.318-1.444q5.886,0,8.586,3.7L38.745-12.1A5.321,5.321,0,0,0,36.828-13.7a5.7,5.7,0,0,0-2.4-.472,5.529,5.529,0,0,0-2.876.729,4.868,4.868,0,0,0-1.89,2.039A6.526,6.526,0,0,0,29-8.424,3.466,3.466,0,0,0,30.1-5.738a4.351,4.351,0,0,0,3.051,1.012,6.389,6.389,0,0,0,1.863-.27ZM56.97-3.294H49.761L47.871,0H41.148L53.19-18.9h6.264L63.936,0H57.591Zm-.891-4.59-.918-4.833L52.38-7.884Zm25.7-6.075H76.248l1-4.941H94.689l-1,4.941H88.155L85.374,0H79Zm20.763-.135-.432,2.214h7.992l-.918,4.59h-8.019l-.486,2.484h9.477L109.188,0H93.474l3.78-18.9h15.363l-.972,4.806ZM123.309.432a11.536,11.536,0,0,1-5.09-1.067,8.045,8.045,0,0,1-3.4-2.984,8.112,8.112,0,0,1-1.2-4.4,11.241,11.241,0,0,1,1.525-5.859,10.644,10.644,0,0,1,4.239-4.01,12.925,12.925,0,0,1,6.17-1.444,11.28,11.28,0,0,1,4.833.986,6.767,6.767,0,0,1,3.132,2.794l-4.59,3.591a4.1,4.1,0,0,0-3.78-2.214,4.871,4.871,0,0,0-2.646.729,4.924,4.924,0,0,0-1.809,2.039,6.639,6.639,0,0,0-.648,2.984,3.531,3.531,0,0,0,1.067,2.686,3.929,3.929,0,0,0,2.821,1.012,5.35,5.35,0,0,0,4.212-2.187l3.753,3.591a9.509,9.509,0,0,1-3.739,2.889A12.624,12.624,0,0,1,123.309.432ZM155.979-18.9,152.2,0h-6.372l1.4-6.966h-5.886L139.941,0h-6.372l3.78-18.9h6.372l-1.35,6.7h5.886l1.35-6.7ZM163.7.432a19.45,19.45,0,0,1-4.617-.527,12.423,12.423,0,0,1-3.564-1.391l2.457-4.7a12.6,12.6,0,0,0,6.372,1.755,4.615,4.615,0,0,0,1.863-.3q.648-.3.648-.81,0-.486-.661-.783a13.251,13.251,0,0,0-2.092-.648,25.792,25.792,0,0,1-3.132-.985A5.8,5.8,0,0,1,158.8-9.491a3.952,3.952,0,0,1-.932-2.74,6.267,6.267,0,0,1,1.148-3.74,7.318,7.318,0,0,1,3.307-2.484,13.516,13.516,0,0,1,5.1-.877,17.531,17.531,0,0,1,3.929.419,10.966,10.966,0,0,1,3.145,1.2l-2.295,4.644a8.618,8.618,0,0,0-2.443-1.053,10.744,10.744,0,0,0-2.741-.351,4.534,4.534,0,0,0-2.052.378q-.729.378-.729.891t.661.81a13.023,13.023,0,0,0,2.173.648,23.822,23.822,0,0,1,3.092.918,5.59,5.59,0,0,1,2.173,1.512,3.9,3.9,0,0,1,.918,2.7,6.114,6.114,0,0,1-1.161,3.7,7.451,7.451,0,0,1-3.321,2.471A13.436,13.436,0,0,1,163.7.432Zm17.766-14.391h-5.535l1-4.941h17.442l-1,4.941h-5.535L185.058,0h-6.372ZM203.526.432a11.361,11.361,0,0,1-5.062-1.067,7.9,7.9,0,0,1-3.348-2.984,8.253,8.253,0,0,1-1.174-4.4,11.313,11.313,0,0,1,1.526-5.872,10.522,10.522,0,0,1,4.239-4.01,12.966,12.966,0,0,1,6.143-1.431,11.361,11.361,0,0,1,5.063,1.066,7.9,7.9,0,0,1,3.348,2.983,8.253,8.253,0,0,1,1.174,4.4,11.313,11.313,0,0,1-1.525,5.873A10.522,10.522,0,0,1,209.668-1,12.966,12.966,0,0,1,203.526.432Zm.54-5.157a4.479,4.479,0,0,0,2.633-.783,5.014,5.014,0,0,0,1.714-2.106,6.972,6.972,0,0,0,.594-2.889,3.64,3.64,0,0,0-.986-2.673,3.639,3.639,0,0,0-2.714-1,4.479,4.479,0,0,0-2.632.783,5.014,5.014,0,0,0-1.715,2.106,6.972,6.972,0,0,0-.594,2.889,3.64,3.64,0,0,0,.985,2.673A3.639,3.639,0,0,0,204.066-4.725Zm32.751-7.965A7.367,7.367,0,0,1,235.48-8.3a7.907,7.907,0,0,1-3.767,2.794L234.873,0h-6.615l-2.673-4.752h-1.566L223.074,0H216.7l3.78-18.9h8.478a9.125,9.125,0,0,1,5.792,1.634A5.5,5.5,0,0,1,236.817-12.69Zm-6.453.621q0-1.917-2.376-1.917h-2.133l-.891,4.428h2.619a2.945,2.945,0,0,0,2.052-.662A2.37,2.37,0,0,0,230.364-12.069Zm16.443-2.025-.432,2.214h7.992l-.918,4.59H245.43l-.486,2.484h9.477L253.449,0H237.735l3.78-18.9h15.363l-.972,4.806Z" transform="translate(-1.782 19.332)"/></svg>