<svg xmlns="http://www.w3.org/2000/svg" width="13.893" height="13.862" viewBox="0 0 13.893 13.862"><defs><style>.a{fill:#f2cd00;}</style></defs><path class="a" d="M387.014,280.129c.035-.231.061-.463.107-.692a3.022,3.022,0,0,1,.569-1.29,6.592,6.592,0,0,1,.77-.828,1.083,1.083,0,0,1,1.488.054q1.066,1.053,2.119,2.119a1.1,1.1,0,0,1-.009,1.593c-.317.329-.644.647-.967.969a1.028,1.028,0,0,1-.11.088,10.153,10.153,0,0,0,4.828,4.829c.338-.342.685-.691,1.031-1.041a1.169,1.169,0,0,1,.616-.346,1.071,1.071,0,0,1,1.017.312q.816.814,1.63,1.629c.16.16.322.317.479.481a1.1,1.1,0,0,1,.054,1.5,3.768,3.768,0,0,1-2.207,1.352,4.132,4.132,0,0,1-1.548-.054,10.175,10.175,0,0,1-3.826-1.685,18.328,18.328,0,0,1-3.138-2.8,15,15,0,0,1-1.916-2.5,6.864,6.864,0,0,1-.921-2.443c-.025-.16-.045-.32-.067-.481Z" transform="translate(-387.014 -277.048)"/></svg>