<svg xmlns="http://www.w3.org/2000/svg" width="12.667" height="17.506" viewBox="0 0 12.667 17.506"><defs><style>.a{fill:#f2cd00;}</style></defs><path class="a" d="M380.594,134.023c.369.065.743.109,1.105.2a6.349,6.349,0,0,1,4.747,5.42,7.281,7.281,0,0,1-.507,3.377,22.216,22.216,0,0,1-2.668,4.867,37.5,37.5,0,0,1-2.636,3.379.577.577,0,0,1-.971,0,33.971,33.971,0,0,1-4.453-6.347,12.878,12.878,0,0,1-1.262-3.305,6.32,6.32,0,0,1,5.642-7.56.654.654,0,0,0,.114-.028Zm2.742,6.338a3.186,3.186,0,1,0-3.194,3.192A3.19,3.19,0,0,0,383.336,140.361Z" transform="translate(-373.816 -134.023)"/></svg>